<?xml version="1.0" encoding="utf-8"?>
<!-- Generator: Adobe Illustrator 25.4.1, SVG Export Plug-In . SVG Version: 6.00 Build 0)  -->
<svg version="1.1" id="圖層_1" xmlns="http://www.w3.org/2000/svg" xmlns:xlink="http://www.w3.org/1999/xlink" x="0px" y="0px"
	 viewBox="0 0 22 20.9" style="enable-background:new 0 0 22 20.9;" xml:space="preserve">
<style type="text/css">
	.st0{fill:#FFFFFF;stroke:#FFFFFF;stroke-width:0.5;stroke-miterlimit:10;}
	.st1{fill:#FFFFFF;}
</style>
<g>
	<path class="st0" d="M10.4,1.2c2.9,0,5.3,0.7,7.3,2.3c2,1.6,3.2,3.7,3.1,6.3c-0.1,1.9-1,3.4-2.3,4.8c-1.8,1.9-4,3.4-6.2,4.8
		c-0.6,0.3-1.2,0.7-1.8,0.9c-0.7,0.3-1.1-0.1-0.9-0.8c0-0.3,0.1-0.6,0.2-0.9c0.1-0.7,0-0.9-0.7-1c-0.8-0.2-1.6-0.3-2.3-0.6
		c-2.3-0.8-4.2-2.2-5.3-4.4C0.2,10,0.4,7.6,2,5.4c1.6-2.2,3.9-3.4,6.5-3.9C9.2,1.3,10,1.3,10.4,1.2z M10.1,19.9
		c0.3-0.1,0.5-0.2,0.7-0.3c0.9-0.5,1.8-1,2.6-1.6c1.9-1.3,3.7-2.6,5.2-4.4c0.9-1.1,1.6-2.4,1.6-3.9c0.1-2.4-1-4.4-2.9-5.8
		c-2.7-2-5.7-2.6-9-1.9C5.9,2.5,3.9,3.6,2.5,5.7c-1.3,1.9-1.6,3.9-0.8,6.1c0.8,2.1,2.4,3.5,4.5,4.4c0.9,0.4,1.9,0.6,2.9,0.8
		c1,0.2,1.3,0.6,1.2,1.6C10.2,19,10.2,19.4,10.1,19.9z"/>
	<path class="st1" d="M13.2,10.1c0-0.5,0-1,0-1.5c0-0.5,0-1,0-1.5c0-0.2,0-0.4,0.3-0.5c0.3,0,0.4,0.2,0.4,0.4c0,1.3,0,2.7,0,4
		c0,0.2-0.1,0.4-0.3,0.5c-0.1,0-0.3-0.1-0.4-0.2c-0.8-1.1-1.6-2.1-2.4-3.3c0,0.2,0,0.3,0,0.4c0,0.8,0,1.6,0,2.5c0,0.1,0,0.2,0,0.3
		c0,0.2-0.1,0.5-0.4,0.4c-0.1,0-0.3-0.3-0.3-0.4c0-1.4,0-2.7,0-4.1c0-0.1,0.1-0.4,0.2-0.4c0.1,0,0.4,0.1,0.5,0.2
		c0.7,1,1.4,1.9,2.2,2.9C13,9.9,13.1,10,13.2,10.1C13.2,10.1,13.2,10.1,13.2,10.1z"/>
	<path class="st1" d="M15.8,7.4c0,0.5,0,0.9,0,1.4c0.5,0,0.9,0,1.3,0c0.1,0,0.3,0,0.4,0c0.1,0.1,0.3,0.2,0.4,0.3
		c-0.1,0.1-0.3,0.3-0.4,0.3c-0.4,0-0.8,0-1.2,0c-0.1,0-0.3,0-0.5,0c0,0.5,0,0.9,0,1.4c0.5,0,1,0,1.5,0c0.3,0,0.6,0,0.5,0.4
		c0,0.3-0.3,0.4-0.6,0.3c-0.6,0-1.2,0-1.8,0c-0.4,0-0.5-0.2-0.5-0.5c0-1.3,0-2.6,0-3.9c0-0.3,0.1-0.5,0.5-0.5c0.6,0,1.2,0,1.8,0
		c0.2,0,0.5,0,0.5,0.3c0,0.3-0.2,0.4-0.5,0.4C16.9,7.4,16.4,7.4,15.8,7.4z"/>
	<path class="st1" d="M5.1,10.9c0.6,0,1.1,0,1.6,0c0.3,0,0.5,0,0.5,0.4c0,0.3-0.2,0.3-0.5,0.3c-0.6,0-1.2,0-1.8,0
		c-0.4,0-0.5-0.1-0.5-0.5c0-1.3,0-2.6,0-3.9c0-0.2,0-0.5,0.3-0.5c0.3,0,0.3,0.2,0.3,0.5c0,1.1,0,2.1,0,3.2
		C5.1,10.5,5.1,10.7,5.1,10.9z"/>
	<path class="st1" d="M8.1,9.1c0-0.6,0-1.3,0-1.9c0-0.2,0-0.5,0.3-0.5c0.3,0,0.4,0.2,0.4,0.5c0,1.3,0,2.7,0,4c0,0.2-0.1,0.5-0.4,0.5
		c-0.3,0-0.3-0.2-0.3-0.5C8.1,10.5,8.1,9.8,8.1,9.1z"/>
</g>
</svg>
