<svg xmlns="http://www.w3.org/2000/svg" width="233.854" height="44.209" viewBox="0 0 233.854 44.209">
  <g id="Group_6" data-name="Group 6" transform="translate(-700.412 -59.582)">
    <path id="Path_1" data-name="Path 1" d="M742.632,99.308q-4.41-4.482-4.409-12.1,0-7.792,4.409-12.377t11.88-4.585q7.528,0,11.924,4.585t4.394,12.377q0,7.619-4.394,12.1t-11.924,4.483Q747.04,103.791,742.632,99.308Zm17.593-5.01q1.962-2.46,1.962-7.177,0-4.834-1.962-7.339a7.751,7.751,0,0,0-11.412,0q-1.949,2.505-1.948,7.339,0,4.717,1.948,7.177a7.845,7.845,0,0,0,11.412,0Z" fill="#fff"/>
    <path id="Path_2" data-name="Path 2" d="M773.484,59.9h8.409V75.255l.175-.234a10.51,10.51,0,0,1,8.965-4.775,12.014,12.014,0,0,1,9.756,4.482q3.691,4.482,3.691,11.807,0,7.762-3.691,12.509a11.756,11.756,0,0,1-9.756,4.747,10.784,10.784,0,0,1-8.965-4.454l-.351-.468v4.1h-8.233Zm15.147,36.972a6.257,6.257,0,0,0,5.3-2.534,11.51,11.51,0,0,0,1.9-7.046,11.948,11.948,0,0,0-1.9-7.192,6.6,6.6,0,0,0-10.547.073,12.57,12.57,0,0,0-1.905,7.412,10.908,10.908,0,0,0,1.905,6.827A6.215,6.215,0,0,0,788.631,96.876Z" fill="#fff"/>
    <path id="Path_3" data-name="Path 3" d="M820,103.791q-7.266,0-11.206-4.483t-3.94-12.773q0-7.647,4.013-11.968T820,70.246q7.295,0,11.235,4.409t3.941,12.553a7.026,7.026,0,0,1-.147,1.9H813.316a11.022,11.022,0,0,0,1.67,5.654q1.758,2.345,5.86,2.344a6.237,6.237,0,0,0,3.53-1.084,4.2,4.2,0,0,0,1.948-2.608h8.555a12.185,12.185,0,0,1-5.025,7.618A16.8,16.8,0,0,1,820,103.791Zm6.416-20.04a8.752,8.752,0,0,0-1.523-4.482,5.869,5.869,0,0,0-5.01-2.139,5.618,5.618,0,0,0-4.951,2.491,10.989,10.989,0,0,0-1.524,4.13Z" fill="#fff"/>
    <path id="Path_4" data-name="Path 4" d="M837.68,71.1h8v5.713a16.426,16.426,0,0,1,1-1.816q2.958-4.746,7.646-4.746l1.9.029v8.584a24.33,24.33,0,0,0-2.52-.117q-3.839,0-5.727,1.9t-1.89,5.771V102.97H837.68Z" fill="#fff"/>
    <path id="Path_5" data-name="Path 5" d="M858.762,102.97V59.9h8.994v35.42h21.416v7.646Z" fill="#fff"/>
    <path id="Path_6" data-name="Path 6" d="M891.973,59.582h8.554v7.793h-8.554Zm.088,11.513h8.408V102.97h-8.408Z" fill="#fff"/>
    <path id="Path_7" data-name="Path 7" d="M905.408,71.1h8v4.717A15.465,15.465,0,0,1,914.49,74.2q3.105-3.955,9.024-3.955a10.4,10.4,0,0,1,7.9,2.988q2.856,2.988,2.857,8.291V102.97h-8.409V83.048a6.411,6.411,0,0,0-1.274-4.38,4.994,4.994,0,0,0-3.911-1.42,6.446,6.446,0,0,0-5.083,1.992,8.366,8.366,0,0,0-1.773,5.742V102.97h-8.408Z" fill="#fff"/>
    <path id="Path_8" data-name="Path 8" d="M735.012,100.392a8.877,8.877,0,0,1-.44-2.988l-.205-7.061q-.147-5.186-3.838-7.383a11.153,11.153,0,0,0-1.435-.7,11.665,11.665,0,0,0,2.519-1.289q4.19-2.871,4.19-9.082a10.987,10.987,0,0,0-3.765-8.686q-3.765-3.3-9.917-3.3H700.412V102.97h8.974V71.6h.02V67.316h10.781a7.458,7.458,0,0,1,4.966,1.421A5.313,5.313,0,0,1,726.809,73a5.213,5.213,0,0,1-1.744,4.292,8.15,8.15,0,0,1-5.229,1.42h-3.8v7.237h2.331q3.836,0,5.489,1.23a4.949,4.949,0,0,1,1.713,4.131l.057,3.984a44.7,44.7,0,0,0,.293,4.761,10.094,10.094,0,0,0,.616,2.886h9.938V101.8A2.858,2.858,0,0,1,735.012,100.392Z" fill="#fff"/>
  </g>
</svg>
